<svg class="animated" id="freepik_stories-country-side" xmlns="http://www.w3.org/2000/svg" xmlns:xlink="http://www.w3.org/1999/xlink" viewBox="0 0 500 500" version="1.1" xmlns:svgjs="http://svgjs.com/svgjs"><style>svg#freepik_stories-country-side:not(.animated) .animable {opacity: 0;}svg#freepik_stories-country-side.animated #freepik--Clouds--inject-31 {animation: 1s 1 forwards cubic-bezier(.36,-0.01,.5,1.38) slideLeft,1.5s Infinite  linear floating;animation-delay: 0s,1s;}            @keyframes slideLeft {                0% {                    opacity: 0;                    transform: translateX(-30px);                }                100% {                    opacity: 1;                    transform: translateX(0);                }            }                    @keyframes floating {                0% {                    opacity: 1;                    transform: translateY(0px);                }                50% {                    transform: translateY(-10px);                }                100% {                    opacity: 1;                    transform: translateY(0px);                }            }        </style><g id="freepik--background-simple--inject-31" class="animable" style="transform-origin: 249.226px 241.047px;"><path d="M452,326.14c8.83-69.74-34-162.42-78.33-200.69-80.09-69.1-146.63-55.74-198.39-31S116.18,201.84,80.44,239.22,24.38,326.88,78.6,376.94s98,24.62,154.64,21.44,131.85,21.82,172.51.09C434.15,383.3,448.13,357,452,326.14Z" style="fill: rgb(146, 227, 169); transform-origin: 249.226px 241.047px;" id="elmn07bok84bi" class="animable"></path><g id="elbx6q0r1djql"><path d="M452,326.14c8.83-69.74-34-162.42-78.33-200.69-80.09-69.1-146.63-55.74-198.39-31S116.18,201.84,80.44,239.22,24.38,326.88,78.6,376.94s98,24.62,154.64,21.44,131.85,21.82,172.51.09C434.15,383.3,448.13,357,452,326.14Z" style="fill: rgb(255, 255, 255); opacity: 0.8; transform-origin: 249.226px 241.047px;" class="animable"></path></g></g><g id="freepik--Floor--inject-31" class="animable" style="transform-origin: 250.16px 372.764px;"><path d="M50.33,337.92c5.05,12.86,14.12,25.95,28.27,39,54.22,50.05,98,24.62,154.64,21.44s131.85,21.82,172.51.09c24.7-13.2,38.5-34.85,44.24-60.55Z" style="fill: rgb(146, 227, 169); transform-origin: 250.16px 372.764px;" id="elvv1jvsms4wh" class="animable"></path><g id="elwb9ifwdj0fi"><path d="M50.33,337.92c5.05,12.86,14.12,25.95,28.27,39,54.22,50.05,98,24.62,154.64,21.44s131.85,21.82,172.51.09c24.7-13.2,38.5-34.85,44.24-60.55Z" style="fill: rgb(255, 255, 255); opacity: 0.5; transform-origin: 250.16px 372.764px;" class="animable"></path></g></g><g id="freepik--Clouds--inject-31" class="animable animator-active" style="transform-origin: 209.93px 140.346px;"><path d="M211.64,169.5c-6.37-3.48-9.27-.58-11.59-3.48s6.38-10.43-11-18c0,0-1.16-16.23-24.92-16.81s-17.38,16.23-23.76,20.28-8.11-2.31-14.48,1.74-3.48,12.17-8.7,13.33-12.17-5.21-18.54-1.16S92.26,173,89.37,173s-8.7-2.32-12.17,0-7.54,5.21-7.54,5.21H216.28S218,173,211.64,169.5Z" style="fill: rgb(146, 227, 169); transform-origin: 143.076px 154.703px;" id="el71be4diq81n" class="animable"></path><path d="M277.76,121.65c-3.19-1.74-4.64-.29-5.8-1.74s3.19-5.23-5.52-9c0,0-.58-8.13-12.48-8.42s-8.7,8.13-11.89,10.16-4.07-1.16-7.26.87-1.74,6.1-4.35,6.68-6.1-2.62-9.29-.58-3.19,3.77-4.64,3.77-4.35-1.16-6.1,0-3.77,2.61-3.77,2.61h73.42S281,123.39,277.76,121.65Z" style="fill: rgb(146, 227, 169); transform-origin: 243.43px 114.241px;" id="el90htn4g0qdf" class="animable"></path><path d="M347.76,156.65c-3.19-1.74-4.64-.29-5.8-1.74s3.19-5.23-5.52-9c0,0-.58-8.13-12.48-8.42s-8.7,8.13-11.89,10.16-4.07-1.16-7.26.87-1.74,6.1-4.35,6.68-6.1-2.62-9.29-.58-3.19,3.77-4.64,3.77-4.35-1.16-6.1,0-3.77,2.61-3.77,2.61h73.42S351,158.39,347.76,156.65Z" style="fill: rgb(146, 227, 169); transform-origin: 313.43px 149.241px;" id="eluhfx3gaei6" class="animable"></path><g id="elzcxtkiafgcp"><g style="opacity: 0.6; transform-origin: 209.93px 140.346px;" class="animable"><path d="M211.64,169.5c-6.37-3.48-9.27-.58-11.59-3.48s6.38-10.43-11-18c0,0-1.16-16.23-24.92-16.81s-17.38,16.23-23.76,20.28-8.11-2.31-14.48,1.74-3.48,12.17-8.7,13.33-12.17-5.21-18.54-1.16S92.26,173,89.37,173s-8.7-2.32-12.17,0-7.54,5.21-7.54,5.21H216.28S218,173,211.64,169.5Z" style="fill: rgb(255, 255, 255); transform-origin: 143.076px 154.703px;" id="el1urx1l08pfy" class="animable"></path><path d="M277.76,121.65c-3.19-1.74-4.64-.29-5.8-1.74s3.19-5.23-5.52-9c0,0-.58-8.13-12.48-8.42s-8.7,8.13-11.89,10.16-4.07-1.16-7.26.87-1.74,6.1-4.35,6.68-6.1-2.62-9.29-.58-3.19,3.77-4.64,3.77-4.35-1.16-6.1,0-3.77,2.61-3.77,2.61h73.42S281,123.39,277.76,121.65Z" style="fill: rgb(255, 255, 255); transform-origin: 243.43px 114.241px;" id="elcjoze2q7es" class="animable"></path><path d="M347.76,156.65c-3.19-1.74-4.64-.29-5.8-1.74s3.19-5.23-5.52-9c0,0-.58-8.13-12.48-8.42s-8.7,8.13-11.89,10.16-4.07-1.16-7.26.87-1.74,6.1-4.35,6.68-6.1-2.62-9.29-.58-3.19,3.77-4.64,3.77-4.35-1.16-6.1,0-3.77,2.61-3.77,2.61h73.42S351,158.39,347.76,156.65Z" style="fill: rgb(255, 255, 255); transform-origin: 313.43px 149.241px;" id="elvzaf0k94o79" class="animable"></path></g></g></g><g id="freepik--Trees--inject-31" class="animable" style="transform-origin: 255.307px 288.691px;"><path d="M49.76,309.79s14.41,1.43,21.71,10.36c0,0,7.71-10.35,21.56-10.13a28,28,0,1,0-43.27-.2Z" style="fill: rgb(146, 227, 169); transform-origin: 71.4772px 292.148px;" id="elvhrcq7wk9e" class="animable"></path><g id="eldt8zin3waqf"><path d="M49.76,309.79s14.41,1.43,21.71,10.36c0,0,7.71-10.35,21.56-10.13a28,28,0,1,0-43.27-.2Z" style="fill: rgb(255, 255, 255); opacity: 0.3; transform-origin: 71.4772px 292.148px;" class="animable"></path></g><polygon points="70.99 266.13 70.5 338.33 72.94 338.33 70.99 266.13" style="fill: rgb(38, 50, 56); transform-origin: 71.72px 302.23px;" id="el78aezexpnio" class="animable"></polygon><path d="M71.72,317.43s4.86-8.76,13.62-11.43c0,0-9.24,2.19-13.86,9.72Z" style="fill: rgb(38, 50, 56); transform-origin: 78.41px 311.715px;" id="elj5m0sm6nbio" class="animable"></path><path d="M71.72,292.63s4.86-8.75,13.62-11.43c0,0-9.24,2.19-13.86,9.73Z" style="fill: rgb(38, 50, 56); transform-origin: 78.41px 286.915px;" id="elbrtd32ktxv" class="animable"></path><path d="M71.72,305s4.86-8.76,13.62-11.43c0,0-9.24,2.19-13.86,9.72Z" style="fill: rgb(38, 50, 56); transform-origin: 78.41px 299.285px;" id="elbpfqqet267q" class="animable"></path><path d="M71,299s-4.69-8.75-13.14-11.43c0,0,8.92,2.19,13.37,9.73Z" style="fill: rgb(38, 50, 56); transform-origin: 64.545px 293.285px;" id="elcv5f2lg4oyk" class="animable"></path><path d="M71,311.1s-4.69-8.75-13.14-11.42c0,0,8.92,2.19,13.37,9.72Z" style="fill: rgb(38, 50, 56); transform-origin: 64.545px 305.39px;" id="elh4gqsk2dk8d" class="animable"></path><path d="M94.43,304.32s17.16,1.7,25.87,12.34c0,0,9.19-12.33,25.7-12.08a33.36,33.36,0,1,0-51.58-.23Z" style="fill: rgb(146, 227, 169); transform-origin: 120.304px 283.303px;" id="el9jg63sq8hsd" class="animable"></path><g id="ely043hblcxw"><path d="M94.43,304.32s17.16,1.7,25.87,12.34c0,0,9.19-12.33,25.7-12.08a33.36,33.36,0,1,0-51.58-.23Z" style="fill: rgb(255, 255, 255); opacity: 0.5; transform-origin: 120.304px 283.303px;" class="animable"></path></g><polygon points="119.73 252.28 119.15 338.33 122.05 338.33 119.73 252.28" style="fill: rgb(38, 50, 56); transform-origin: 120.6px 295.305px;" id="elgp0194yq0eq" class="animable"></polygon><path d="M120.6,313.42s5.79-10.43,16.22-13.62c0,0-11,2.61-16.51,11.59Z" style="fill: rgb(38, 50, 56); transform-origin: 128.565px 306.61px;" id="elkxf1wottj6" class="animable"></path><path d="M120.6,283.86s5.79-10.43,16.22-13.62c0,0-11,2.61-16.51,11.59Z" style="fill: rgb(38, 50, 56); transform-origin: 128.565px 277.05px;" id="elvhhiap7h1ob" class="animable"></path><path d="M120.6,298.64s5.79-10.43,16.22-13.62c0,0-11,2.61-16.51,11.59Z" style="fill: rgb(38, 50, 56); transform-origin: 128.565px 291.83px;" id="el9avbw9uxs3n" class="animable"></path><path d="M119.74,291.4s-5.59-10.43-15.66-13.62c0,0,10.63,2.61,15.94,11.59Z" style="fill: rgb(38, 50, 56); transform-origin: 112.05px 284.59px;" id="elagfvtmxtu85" class="animable"></path><path d="M119.74,305.88s-5.59-10.43-15.66-13.62c0,0,10.63,2.61,15.94,11.59Z" style="fill: rgb(38, 50, 56); transform-origin: 112.05px 299.07px;" id="elrv0np971dwb" class="animable"></path><path d="M140.52,314.26s12.16,1.2,18.31,8.73a23.55,23.55,0,0,1,18.2-8.55,23.62,23.62,0,1,0-36.51-.16Z" style="fill: rgb(146, 227, 169); transform-origin: 158.841px 299.371px;" id="eliutiuwyw4vc" class="animable"></path><g id="elyjg7bte9yr"><path d="M140.52,314.26s12.16,1.2,18.31,8.73a23.55,23.55,0,0,1,18.2-8.55,23.62,23.62,0,1,0-36.51-.16Z" style="fill: rgb(255, 255, 255); opacity: 0.5; transform-origin: 158.841px 299.371px;" class="animable"></path></g><polygon points="158.43 277.42 158.02 338.33 160.07 338.33 158.43 277.42" style="fill: rgb(38, 50, 56); transform-origin: 159.045px 307.875px;" id="el0inby24kks" class="animable"></polygon><path d="M159.05,320.7s4.1-7.39,11.48-9.64c0,0-7.79,1.84-11.69,8.2Z" style="fill: rgb(38, 50, 56); transform-origin: 164.685px 315.88px;" id="elg35g2cl33c" class="animable"></path><path d="M159.05,299.78s4.1-7.39,11.48-9.64c0,0-7.79,1.84-11.69,8.2Z" style="fill: rgb(38, 50, 56); transform-origin: 164.685px 294.96px;" id="elg9njo33ja8k" class="animable"></path><path d="M159.05,310.24s4.1-7.39,11.48-9.64c0,0-7.79,1.84-11.69,8.2Z" style="fill: rgb(38, 50, 56); transform-origin: 164.685px 305.42px;" id="elzuocf13x7z" class="animable"></path><path d="M158.44,305.11s-4-7.38-11.08-9.64c0,0,7.52,1.85,11.28,8.2Z" style="fill: rgb(38, 50, 56); transform-origin: 153px 300.29px;" id="elbwok6qpd3e8" class="animable"></path><path d="M158.44,315.36s-4-7.38-11.08-9.64c0,0,7.52,1.85,11.28,8.21Z" style="fill: rgb(38, 50, 56); transform-origin: 153px 310.54px;" id="ele9s2d90gos7" class="animable"></path><path d="M372.07,309.79s14.4,1.43,21.7,10.36c0,0,7.72-10.35,21.57-10.13a28,28,0,1,0-43.27-.2Z" style="fill: rgb(146, 227, 169); transform-origin: 393.787px 292.148px;" id="eltx9mng9zfs" class="animable"></path><g id="el8fyw8brzu4e"><path d="M372.07,309.79s14.4,1.43,21.7,10.36c0,0,7.72-10.35,21.57-10.13a28,28,0,1,0-43.27-.2Z" style="fill: rgb(255, 255, 255); opacity: 0.3; transform-origin: 393.787px 292.148px;" class="animable"></path></g><polygon points="393.3 266.13 392.81 338.33 395.24 338.33 393.3 266.13" style="fill: rgb(38, 50, 56); transform-origin: 394.025px 302.23px;" id="elb9podxlt7gh" class="animable"></polygon><path d="M394,317.43s4.86-8.76,13.61-11.43c0,0-9.24,2.19-13.86,9.72Z" style="fill: rgb(38, 50, 56); transform-origin: 400.68px 311.715px;" id="eld0txqqa5sv" class="animable"></path><path d="M394,292.63s4.86-8.75,13.61-11.43c0,0-9.24,2.19-13.86,9.73Z" style="fill: rgb(38, 50, 56); transform-origin: 400.68px 286.915px;" id="el1cy8ygzr265" class="animable"></path><path d="M394,305s4.86-8.76,13.61-11.43c0,0-9.24,2.19-13.86,9.72Z" style="fill: rgb(38, 50, 56); transform-origin: 400.68px 299.285px;" id="elb5zh0i485tn" class="animable"></path><path d="M393.31,299s-4.7-8.75-13.14-11.43c0,0,8.91,2.19,13.37,9.73Z" style="fill: rgb(38, 50, 56); transform-origin: 386.855px 293.285px;" id="el0ibucuta8qs" class="animable"></path><path d="M393.31,311.1s-4.7-8.75-13.14-11.42c0,0,8.91,2.19,13.37,9.72Z" style="fill: rgb(38, 50, 56); transform-origin: 386.855px 305.39px;" id="elgpg3kcvqdy8" class="animable"></path><path d="M400.6,300.11S419.89,302,429.66,314c0,0,10.33-13.85,28.88-13.57a37.49,37.49,0,1,0-58-.26Z" style="fill: rgb(146, 227, 169); transform-origin: 429.647px 276.526px;" id="elr1xo64xdzvo" class="animable"></path><g id="el8z7cy02tuli"><path d="M400.6,300.11S419.89,302,429.66,314c0,0,10.33-13.85,28.88-13.57a37.49,37.49,0,1,0-58-.26Z" style="fill: rgb(255, 255, 255); opacity: 0.5; transform-origin: 429.647px 276.526px;" class="animable"></path></g><polygon points="429.02 241.64 428.37 338.33 431.63 338.33 429.02 241.64" style="fill: rgb(38, 50, 56); transform-origin: 430px 289.985px;" id="el956dildjtko" class="animable"></polygon><path d="M430,310.34s6.51-11.72,18.23-15.31c0,0-12.37,2.93-18.56,13Z" style="fill: rgb(38, 50, 56); transform-origin: 438.95px 302.685px;" id="elf7nlxstf8n9" class="animable"></path><path d="M430,277.13s6.51-11.72,18.23-15.3c0,0-12.37,2.93-18.56,13Z" style="fill: rgb(38, 50, 56); transform-origin: 438.95px 269.48px;" id="el5hflsx712fr" class="animable"></path><path d="M430,293.73s6.51-11.72,18.23-15.3c0,0-12.37,2.93-18.56,13Z" style="fill: rgb(38, 50, 56); transform-origin: 438.95px 286.08px;" id="el0og801g8fl4g" class="animable"></path><path d="M429,285.59s-6.28-11.72-17.59-15.3c0,0,11.94,2.93,17.91,13Z" style="fill: rgb(38, 50, 56); transform-origin: 420.365px 277.94px;" id="elnzhrp73tfks" class="animable"></path><path d="M429,301.87s-6.28-11.72-17.59-15.3c0,0,11.94,2.93,17.91,13Z" style="fill: rgb(38, 50, 56); transform-origin: 420.365px 294.22px;" id="el2yhutbnrlxm" class="animable"></path></g><g id="freepik--Windmill--inject-31" class="animable" style="transform-origin: 401.045px 220.835px;"><polygon points="408.33 143.53 439 148.33 439 124.33 408.33 129.13 408.33 143.53" style="fill: rgb(38, 50, 56); stroke: rgb(38, 50, 56); stroke-linecap: round; stroke-linejoin: round; transform-origin: 423.665px 136.33px;" id="elgkh01dupcfn" class="animable"></polygon><polygon points="394.12 134.03 383.79 338.33 404.45 338.33 394.12 134.03" style="fill: none; stroke: rgb(38, 50, 56); stroke-linecap: round; stroke-linejoin: round; transform-origin: 394.12px 236.18px;" id="el1e4orbmxbyp" class="animable"></polygon><line x1="394.33" y1="134.34" x2="394.33" y2="121.35" style="fill: none; stroke: rgb(38, 50, 56); stroke-linecap: round; stroke-linejoin: round; transform-origin: 394.33px 127.845px;" id="ellebrl4j972" class="animable"></line><line x1="383.1" y1="134.53" x2="405.26" y2="134.53" style="fill: none; stroke: rgb(38, 50, 56); stroke-linecap: round; stroke-linejoin: round; transform-origin: 394.18px 134.53px;" id="elkzk8twr3zhn" class="animable"></line><polygon points="399.4 240.15 388.67 240.15 396.63 190.95 391.44 190.95 399.4 240.15" style="fill: none; stroke: rgb(38, 50, 56); stroke-linecap: round; stroke-linejoin: round; transform-origin: 394.035px 215.55px;" id="eln9icjk47nni" class="animable"></polygon><polygon points="385.19 130.09 384.39 134.63 363.19 132.45 364.52 124.89 385.19 130.09" style="fill: rgb(146, 227, 169); stroke: rgb(38, 50, 56); stroke-linecap: round; stroke-linejoin: round; transform-origin: 374.19px 129.76px;" id="elu1ap54f7gfa" class="animable"></polygon><polygon points="384.29 133.48 385.09 138.01 364.42 143.22 363.09 135.66 384.29 133.48" style="fill: rgb(38, 50, 56); stroke: rgb(38, 50, 56); stroke-linecap: round; stroke-linejoin: round; transform-origin: 374.09px 138.35px;" id="elssq65rq4cqh" class="animable"></polygon><polygon points="384.6 136.96 386.9 140.95 369.26 152.91 365.42 146.26 384.6 136.96" style="fill: rgb(146, 227, 169); stroke: rgb(38, 50, 56); stroke-linecap: round; stroke-linejoin: round; transform-origin: 376.16px 144.935px;" id="elr7lmvohuash" class="animable"></polygon><polygon points="386.08 140.14 389.61 143.1 377.12 160.37 371.24 155.43 386.08 140.14" style="fill: rgb(38, 50, 56); stroke: rgb(38, 50, 56); stroke-linecap: round; stroke-linejoin: round; transform-origin: 380.425px 150.255px;" id="el9576nrct4t" class="animable"></polygon><polygon points="388.56 142.61 392.89 144.19 387.06 164.69 379.85 162.06 388.56 142.61" style="fill: rgb(146, 227, 169); stroke: rgb(38, 50, 56); stroke-linecap: round; stroke-linejoin: round; transform-origin: 386.37px 153.65px;" id="el88gn3c2n7kt" class="animable"></polygon><polygon points="391.74 144.09 396.34 144.09 397.88 165.34 390.2 165.34 391.74 144.09" style="fill: rgb(38, 50, 56); stroke: rgb(38, 50, 56); stroke-linecap: round; stroke-linejoin: round; transform-origin: 394.04px 154.715px;" id="el9py56fdc9n5" class="animable"></polygon><polygon points="395.22 144.39 399.55 142.81 408.26 162.26 401.05 164.89 395.22 144.39" style="fill: rgb(146, 227, 169); stroke: rgb(38, 50, 56); stroke-linecap: round; stroke-linejoin: round; transform-origin: 401.74px 153.85px;" id="el9d6w4oo30x" class="animable"></polygon><polygon points="398.61 143.48 402.13 140.52 416.97 155.81 411.09 160.75 398.61 143.48" style="fill: rgb(38, 50, 56); stroke: rgb(38, 50, 56); stroke-linecap: round; stroke-linejoin: round; transform-origin: 407.79px 150.635px;" id="eltk9ofspbdgs" class="animable"></polygon><polygon points="401.47 141.46 403.77 137.48 422.95 146.78 419.11 153.42 401.47 141.46" style="fill: rgb(146, 227, 169); stroke: rgb(38, 50, 56); stroke-linecap: round; stroke-linejoin: round; transform-origin: 412.21px 145.45px;" id="elt2ivlvvomyi" class="animable"></polygon><polygon points="403.48 138.59 404.28 134.06 425.48 136.24 424.14 143.8 403.48 138.59" style="fill: rgb(38, 50, 56); stroke: rgb(38, 50, 56); stroke-linecap: round; stroke-linejoin: round; transform-origin: 414.48px 138.93px;" id="el7s9131zlpba" class="animable"></polygon><polygon points="404.38 135.21 403.58 130.67 424.25 125.47 425.58 133.03 404.38 135.21" style="fill: rgb(146, 227, 169); stroke: rgb(38, 50, 56); stroke-linecap: round; stroke-linejoin: round; transform-origin: 414.58px 130.34px;" id="el7ct48m38v0x" class="animable"></polygon><polygon points="404.07 131.72 401.77 127.73 419.41 115.78 423.25 122.42 404.07 131.72" style="fill: rgb(38, 50, 56); stroke: rgb(38, 50, 56); stroke-linecap: round; stroke-linejoin: round; transform-origin: 412.51px 123.75px;" id="el5st6no2hatw" class="animable"></polygon><polygon points="402.59 128.55 399.06 125.59 411.55 108.32 417.43 113.25 402.59 128.55" style="fill: rgb(146, 227, 169); stroke: rgb(38, 50, 56); stroke-linecap: round; stroke-linejoin: round; transform-origin: 408.245px 118.435px;" id="el8awgqrchuhw" class="animable"></polygon><polygon points="400.11 126.08 395.78 124.5 401.61 104 408.82 106.63 400.11 126.08" style="fill: rgb(38, 50, 56); stroke: rgb(38, 50, 56); stroke-linecap: round; stroke-linejoin: round; transform-origin: 402.3px 115.04px;" id="elyszwpyzgbab" class="animable"></polygon><polygon points="387.19 127.22 384.89 131.21 365.71 121.91 369.55 115.26 387.19 127.22" style="fill: rgb(38, 50, 56); stroke: rgb(38, 50, 56); stroke-linecap: round; stroke-linejoin: round; transform-origin: 376.45px 123.235px;" id="el11nzm83th9ng" class="animable"></polygon><polygon points="390.06 125.21 386.53 128.17 371.69 112.87 377.57 107.94 390.06 125.21" style="fill: rgb(146, 227, 169); stroke: rgb(38, 50, 56); stroke-linecap: round; stroke-linejoin: round; transform-origin: 380.875px 118.055px;" id="eldddve42rvjk" class="animable"></polygon><polygon points="393.44 124.3 389.11 125.87 380.4 106.42 387.62 103.8 393.44 124.3" style="fill: rgb(38, 50, 56); stroke: rgb(38, 50, 56); stroke-linecap: round; stroke-linejoin: round; transform-origin: 386.92px 114.835px;" id="elfjuteev98te" class="animable"></polygon><polygon points="396.93 124.6 392.33 124.6 390.79 103.34 398.47 103.34 396.93 124.6" style="fill: rgb(146, 227, 169); stroke: rgb(38, 50, 56); stroke-linecap: round; stroke-linejoin: round; transform-origin: 394.63px 113.97px;" id="elxntcx3dvwb" class="animable"></polygon><path d="M397,134.34a2.66,2.66,0,1,0-2.66,2.66A2.66,2.66,0,0,0,397,134.34Z" style="fill: rgb(38, 50, 56); stroke: rgb(38, 50, 56); stroke-linecap: round; stroke-linejoin: round; transform-origin: 394.34px 134.34px;" id="elwfy3i3203oj" class="animable"></path></g><g id="freepik--Farm--inject-31" class="animable" style="transform-origin: 302.21px 265.47px;"><rect x="297" y="271.83" width="99" height="66.5" style="fill: rgb(38, 50, 56); stroke: rgb(38, 50, 56); stroke-linecap: round; stroke-linejoin: round; transform-origin: 346.5px 305.08px;" id="els6n7ophmde" class="animable"></rect><polygon points="299.33 338.33 166.67 338.33 166.67 271.67 191.13 209.19 232 189.33 274.13 209.33 299.33 271.67 299.33 338.33" style="fill: rgb(146, 227, 169); stroke: rgb(38, 50, 56); stroke-linecap: round; stroke-linejoin: round; transform-origin: 233px 263.83px;" id="elxs0ogonx5tq" class="animable"></polygon><polygon points="160.87 279.02 157.93 274.98 164.86 269.94 189.44 207.27 232.05 186.56 275.92 207.39 301.21 269.86 308.07 274.23 305.39 278.44 297.58 273.47 297.28 273 272.46 211.28 232.08 192.11 192.95 211.12 168.6 273.39 160.87 279.02" style="fill: rgb(255, 255, 255); stroke: rgb(38, 50, 56); stroke-linecap: round; stroke-linejoin: round; transform-origin: 233px 232.79px;" id="el3fdlrpwxxo5" class="animable"></polygon><rect x="222" y="214" width="22" height="56.17" style="fill: rgb(146, 227, 169); stroke: rgb(38, 50, 56); stroke-linecap: round; stroke-linejoin: round; transform-origin: 233px 242.085px;" id="el4zc53mv7see" class="animable"></rect><rect x="210" y="278.17" width="46" height="60.17" style="fill: rgb(255, 255, 255); stroke: rgb(38, 50, 56); stroke-linecap: round; stroke-linejoin: round; transform-origin: 233px 308.255px;" id="eln39z84hfz" class="animable"></rect><rect x="195.33" y="268.17" width="75.33" height="4" style="fill: rgb(146, 227, 169); stroke: rgb(38, 50, 56); stroke-linecap: round; stroke-linejoin: round; transform-origin: 232.995px 270.17px;" id="el9gmbg3d3ns" class="animable"></rect><rect x="195.33" y="210" width="75.33" height="4" style="fill: rgb(146, 227, 169); stroke: rgb(38, 50, 56); stroke-linecap: round; stroke-linejoin: round; transform-origin: 232.995px 212px;" id="el42low0y6zcd" class="animable"></rect><polygon points="220.26 309.76 212.5 286.96 212.5 332.56 220.26 309.76" style="fill: rgb(38, 50, 56); transform-origin: 216.38px 309.76px;" id="ele7nj57avdl7" class="animable"></polygon><polygon points="229.21 283.5 213.68 283.5 221.44 306.3 229.21 283.5" style="fill: rgb(38, 50, 56); transform-origin: 221.445px 294.9px;" id="elgcd88skp0e" class="animable"></polygon><polygon points="221.44 313.23 213.68 336.02 229.21 336.02 221.44 313.23" style="fill: rgb(38, 50, 56); transform-origin: 221.445px 324.625px;" id="ely62x0szjutb" class="animable"></polygon><polygon points="222.63 309.76 230.39 332.56 230.39 286.96 222.63 309.76" style="fill: rgb(38, 50, 56); transform-origin: 226.51px 309.76px;" id="el0d7ufa1tfu0t" class="animable"></polygon><polygon points="252.2 283.5 236.67 283.5 244.43 306.3 252.2 283.5" style="fill: rgb(38, 50, 56); transform-origin: 244.435px 294.9px;" id="el7kc116q5w" class="animable"></polygon><polygon points="243.25 309.76 235.61 287.33 235.61 332.2 243.25 309.76" style="fill: rgb(38, 50, 56); transform-origin: 239.43px 309.765px;" id="elmv7hmg6srz" class="animable"></polygon><polygon points="245.61 309.76 253.5 332.92 253.5 286.6 245.61 309.76" style="fill: rgb(38, 50, 56); transform-origin: 249.555px 309.76px;" id="elsjei99eddu" class="animable"></polygon><polygon points="244.43 313.23 236.67 336.02 252.2 336.02 244.43 313.23" style="fill: rgb(38, 50, 56); transform-origin: 244.435px 324.625px;" id="elah5rj6pj6iv" class="animable"></polygon><polygon points="404.07 274.23 397.21 269.86 371.92 207.39 328.05 186.56 232.05 186.56 275.92 207.39 301.21 269.86 308.07 274.23 394.76 274.23 401.39 278.44 404.07 274.23" style="fill: rgb(38, 50, 56); transform-origin: 318.06px 232.5px;" id="elg3oqc1sx2qt" class="animable"></polygon><g style="clip-path: url(&quot;#freepik--clip-path--inject-31&quot;); transform-origin: 318.06px 232.5px;" id="elr5j2vlttron" class="animable"><g id="elbok6bjeov3k"><polygon points="404.07 274.23 397.21 269.86 371.92 207.39 328.05 186.56 232.05 186.56 275.92 207.39 301.21 269.86 308.07 274.23 394.76 274.23 401.39 278.44 404.07 274.23" style="fill: rgb(255, 255, 255); opacity: 0.5; transform-origin: 318.06px 232.5px;" class="animable"></polygon></g><g id="el4ubx5uqose7"><polygon points="275.92 207.39 371.92 207.39 328.05 186.56 232.05 186.56 275.92 207.39" style="fill: rgb(255, 255, 255); opacity: 0.5; transform-origin: 301.985px 196.975px;" class="animable"></polygon></g></g><polygon points="404.07 274.23 397.21 269.86 371.92 207.39 328.05 186.56 232.05 186.56 275.92 207.39 301.21 269.86 308.07 274.23 394.76 274.23 401.39 278.44 404.07 274.23" style="fill: none; stroke: rgb(38, 50, 56); stroke-linecap: round; stroke-linejoin: round; transform-origin: 318.06px 232.5px;" id="el9y2au35tbzo" class="animable"></polygon><polygon points="308.07 274.23 404.07 274.23 401.39 278.44 305.39 278.44 308.07 274.23" style="fill: rgb(255, 255, 255); stroke: rgb(38, 50, 56); stroke-linecap: round; stroke-linejoin: round; transform-origin: 354.73px 276.335px;" id="elx1t4afjca5m" class="animable"></polygon><rect x="308.12" y="289.5" width="4.75" height="7.66" style="fill: rgb(255, 255, 255); transform-origin: 310.495px 293.33px;" id="elsuhr9qo0lph" class="animable"></rect><rect x="313.87" y="289.5" width="4.75" height="7.66" style="fill: rgb(255, 255, 255); transform-origin: 316.245px 293.33px;" id="elyhoudmyp62s" class="animable"></rect><rect x="308.12" y="298.16" width="4.75" height="6.84" style="fill: rgb(255, 255, 255); transform-origin: 310.495px 301.58px;" id="el7y2rrmqo727" class="animable"></rect><rect x="313.87" y="298.16" width="4.75" height="6.84" style="fill: rgb(255, 255, 255); transform-origin: 316.245px 301.58px;" id="el69hxzrl2zy4" class="animable"></rect><rect x="327.79" y="289.5" width="4.75" height="7.66" style="fill: rgb(255, 255, 255); transform-origin: 330.165px 293.33px;" id="el86rvpsc2no" class="animable"></rect><rect x="333.54" y="289.5" width="4.75" height="7.66" style="fill: rgb(255, 255, 255); transform-origin: 335.915px 293.33px;" id="elywtpiuw4y4" class="animable"></rect><rect x="327.79" y="298.16" width="4.75" height="6.84" style="fill: rgb(255, 255, 255); transform-origin: 330.165px 301.58px;" id="ellq9xy0j08wg" class="animable"></rect><rect x="333.54" y="298.16" width="4.75" height="6.84" style="fill: rgb(255, 255, 255); transform-origin: 335.915px 301.58px;" id="elx3pb1xglvyb" class="animable"></rect><rect x="360.12" y="289.5" width="4.75" height="7.66" style="fill: rgb(255, 255, 255); transform-origin: 362.495px 293.33px;" id="elr15aeyet17" class="animable"></rect><rect x="365.87" y="289.5" width="4.75" height="7.66" style="fill: rgb(255, 255, 255); transform-origin: 368.245px 293.33px;" id="el4mm7kdni9" class="animable"></rect><rect x="360.12" y="298.16" width="4.75" height="6.84" style="fill: rgb(255, 255, 255); transform-origin: 362.495px 301.58px;" id="el3bfsftnuuey" class="animable"></rect><rect x="365.87" y="298.16" width="4.75" height="6.84" style="fill: rgb(255, 255, 255); transform-origin: 368.245px 301.58px;" id="elovx1al8qkj" class="animable"></rect><rect x="379.79" y="289.5" width="4.75" height="7.66" style="fill: rgb(255, 255, 255); transform-origin: 382.165px 293.33px;" id="elswp2p68fptj" class="animable"></rect><rect x="385.54" y="289.5" width="4.75" height="7.66" style="fill: rgb(255, 255, 255); transform-origin: 387.915px 293.33px;" id="elgba3uokvy45" class="animable"></rect><rect x="379.79" y="298.16" width="4.75" height="6.84" style="fill: rgb(255, 255, 255); transform-origin: 382.165px 301.58px;" id="eltcmbruys6o" class="animable"></rect><rect x="385.54" y="298.16" width="4.75" height="6.84" style="fill: rgb(255, 255, 255); transform-origin: 387.915px 301.58px;" id="elrgfhwbiqwln" class="animable"></rect><rect x="341.67" y="280.67" width="14" height="6.67" style="fill: rgb(255, 255, 255); transform-origin: 348.67px 284.005px;" id="el7jcz323s3a2" class="animable"></rect><path d="M443.67,319.67v3.66h-11v-3.66h-2.75v3.66H419v-3.66H416.2v3.66h-11v-3.66h-2.75v3.66h-11v-3.66h-2.74v3.66h-11v-3.66H375v3.66H364v-3.66h-2.75v3.66h-11v-3.66h-2.75v3.66h-11v-3.66h-2.74v3.66h-11v-3.66h-2.75v24.71h2.75v-8.24h11v8.24h2.74v-8.24h11v8.24h2.75v-8.24h11v8.24H364v-8.24h11v8.24h2.75v-8.24h11v8.24h2.74v-8.24h11v8.24h2.75v-8.24h11v8.24H419v-8.24h11v8.24h2.75v-8.24h11v8.24h2.74V319.67ZM322.82,332.94v-6.41h11v6.41Zm13.73,0v-6.41h11v6.41Zm13.74,0v-6.41h11v6.41Zm13.73,0v-6.41h11v6.41Zm13.73,0v-6.41h11v6.41Zm13.73,0v-6.41h11v6.41Zm13.74,0v-6.41h11v6.41Zm13.73,0v-6.41h11v6.41Zm13.73,0v-6.41h11v6.41Z" style="fill: rgb(255, 255, 255); stroke: rgb(38, 50, 56); stroke-linecap: round; stroke-linejoin: round; transform-origin: 383.25px 332.025px;" id="elhipzg9paenj" class="animable"></path><line x1="320.07" y1="344.38" x2="446.41" y2="344.38" style="fill: none; stroke: rgb(38, 50, 56); stroke-linecap: round; stroke-linejoin: round; transform-origin: 383.24px 344.38px;" id="el9y5wy8rxc8r" class="animable"></line></g><g id="freepik--Plants--inject-31" class="animable" style="transform-origin: 216.72px 369.498px;"><path d="M351.21,334.15s.38-2,.42-2.11c.46-1.42,2.18-3.9,3.85-3.9a2,2,0,0,1,1.91,2.25,4.15,4.15,0,0,1-2.13,2.76A14.42,14.42,0,0,1,351.21,334.15Z" style="fill: rgb(146, 227, 169); transform-origin: 354.308px 331.145px;" id="elm8oaaouaadc" class="animable"></path><path d="M348,320.75c1.57.56,2.35,3.48,2.3,5,0,.13-.3,2.14-.33,2.13l0,0c.13.46.26.95.39,1.5.24,1,.5,2.13.69,3.39a34.62,34.62,0,0,1,.45,4.08,25.44,25.44,0,0,1-.16,4.58.13.13,0,0,1,0,.06c.21-.45.83-1.67.89-1.76.82-1.25,3.13-3.18,4.75-2.73a2,2,0,0,1,1.24,2.67,4.13,4.13,0,0,1-2.78,2.09,13.72,13.72,0,0,1-4.13-.1,34.61,34.61,0,0,1-1,4.57c-.25.88-.52,1.75-.81,2.62l.39-.76c.82-1.25,3.14-3.18,4.75-2.73a2,2,0,0,1,1.24,2.67,4.13,4.13,0,0,1-2.78,2.09,13.07,13.07,0,0,1-4-.08l-.33,1c-.56,1.6-1.12,3.19-1.61,4.77-.18.56-.33,1.11-.49,1.67.17-.34.32-.62.34-.66.82-1.25,3.14-3.18,4.75-2.74a2,2,0,0,1,1.24,2.68,4.14,4.14,0,0,1-2.78,2.09,12.54,12.54,0,0,1-3.9-.07c-.14.58-.28,1.15-.39,1.71-.07.38-.16.75-.21,1.14s-.11.77-.16,1.14c-.07.74-.16,1.49-.21,2.2,0,.5-.08,1-.11,1.45.17-.55.52-1.63.56-1.72a7.78,7.78,0,0,1,2.56-2.91,2.16,2.16,0,0,1,.22-.39,2,2,0,0,1,2.91-.45c1.27,1.09.95,4.09.37,5.47,0,.08-.51.92-.81,1.44l.68-.84c.46-.57.94-1.12,1.46-1.72l.78-.85c.26-.29.56-.56.85-.85.66-.64,1.37-1.27,2.1-1.88a13.17,13.17,0,0,1-2.74-2.88,4.16,4.16,0,0,1-.34-3.47,2,2,0,0,1,2.81-.89c1.42.89,1.56,3.9,1.19,5.35,0,.09-.4,1.1-.62,1.65.44-.36.88-.73,1.34-1.08,1.32-1,2.69-2,4.05-3l1.25-.93a13.6,13.6,0,0,1-2.86-3,4.12,4.12,0,0,1-.33-3.47,2,2,0,0,1,2.8-.89c1.42.89,1.56,3.91,1.2,5.35,0,.11-.58,1.56-.74,1.93.91-.68,1.81-1.37,2.68-2.08a34.83,34.83,0,0,0,3.31-3.08,13.74,13.74,0,0,1-2.88-3,4.1,4.1,0,0,1-.33-3.46,2,2,0,0,1,2.81-.89c1.41.89,1.55,3.9,1.19,5.35,0,.09-.44,1.2-.66,1.72l.09.05a25.61,25.61,0,0,0,2.71-3.64c.45-.71.84-1.41,1.2-2.1a13.62,13.62,0,0,1-3.11-2.6,4.18,4.18,0,0,1-.71-3.41,2,2,0,0,1,2.69-1.2c1.51.73,2,3.71,1.78,5.19,0,.08-.22.89-.38,1.47.16-.31.33-.63.48-.94.55-1.14,1-2.21,1.36-3.17.21-.55.38-1,.55-1.51a13.21,13.21,0,0,1-1.55-3.72A4.18,4.18,0,0,1,376,332a2,2,0,0,1,2.94.19c1,1.34,0,4.2-.82,5.42-.07.1-1.43,1.61-1.45,1.59v0c-.15.45-.31.93-.5,1.46-.36,1-.77,2.05-1.3,3.21a32.63,32.63,0,0,1-1.88,3.65,25.49,25.49,0,0,1-2.66,3.74l0,0c.41-.26,1.6-.94,1.7-1,1.37-.59,4.37-.92,5.47.34a2,2,0,0,1-.44,2.91,4.13,4.13,0,0,1-3.47.21,14,14,0,0,1-3.39-2.35,34.53,34.53,0,0,1-3.35,3.26c-.69.59-1.4,1.17-2.12,1.74l.75-.42c1.37-.59,4.37-.92,5.47.34a2,2,0,0,1-.44,2.91,4.13,4.13,0,0,1-3.47.21,13,13,0,0,1-3.3-2.27l-.84.65c-1.34,1-2.68,2-4,3.08-.45.37-.89.75-1.32,1.12l.65-.36c1.37-.59,4.37-.92,5.47.34a2,2,0,0,1-.44,2.92,4.18,4.18,0,0,1-3.48.21,12.57,12.57,0,0,1-3.21-2.21c-.44.4-.87.8-1.27,1.21s-.55.54-.8.84l-.77.86c-.47.57-.95,1.15-1.39,1.72-.31.39-.6.77-.89,1.15.45-.37,1.34-1.08,1.42-1.13,1.27-.79,4.18-1.57,5.46-.49a2,2,0,0,1,0,2.94,4.16,4.16,0,0,1-3.41.74,13.59,13.59,0,0,1-3.68-1.8c-.48.63-.94,1.25-1.37,1.84-1.47,2-2.63,3.8-3.42,5l-.08.12-1-.49.16-.24c.83-1.24,2-3,3.57-5,.48-.64,1-1.32,1.56-2a23.09,23.09,0,0,1-1.58-2,14.56,14.56,0,0,1-3.94.48c-.05.79-.1,1.56-.13,2.29-.1,2.52-.09,4.62-.07,6.09v.17l-1.12-.54c0-1.46.05-3.44.2-5.77,0-.81.12-1.66.2-2.54a13.93,13.93,0,0,1-3.82-1.5,4.12,4.12,0,0,1-1.75-3,2,2,0,0,1,2.17-2c1.66.21,3.05,2.89,3.33,4.35,0,.09.08,1.05.12,1.66,0-.36.06-.71.1-1.08.07-.73.17-1.46.27-2.24l.18-1.14c.06-.39.16-.78.24-1.18.2-.9.45-1.82.72-2.73a12.77,12.77,0,0,1-3.88-.89,4.14,4.14,0,0,1-2.19-2.7,2,2,0,0,1,1.85-2.3c1.67,0,3.45,2.4,3.94,3.81,0,.09.27,1.14.4,1.72.16-.55.33-1.1.51-1.64.54-1.59,1.14-3.17,1.72-4.75.18-.49.36-1,.53-1.46a13.86,13.86,0,0,1-4-.9,4.15,4.15,0,0,1-2.19-2.71,2,2,0,0,1,1.85-2.29c1.67,0,3.45,2.39,3.95,3.8,0,.11.38,1.62.44,2,.39-1.07.76-2.13,1.09-3.2a34.67,34.67,0,0,0,1.06-4.4,13.7,13.7,0,0,1-4-.91,4.09,4.09,0,0,1-2.19-2.7,2,2,0,0,1,1.85-2.29c1.67,0,3.45,2.39,3.94,3.8,0,.1.3,1.25.41,1.8h.09a25.32,25.32,0,0,0,.26-4.54c0-.84-.08-1.64-.16-2.41a13.43,13.43,0,0,1-4-.46,4.13,4.13,0,0,1-2.47-2.45,2,2,0,0,1,1.59-2.48c1.65-.22,3.69,2,4.34,3.35,0,.07.3.86.5,1.43-.05-.35-.08-.71-.13-1-.17-1.26-.4-2.39-.61-3.4-.13-.57-.26-1.09-.38-1.56a13.46,13.46,0,0,1-3.34-2.26,4.14,4.14,0,0,1-1.07-3.31A2,2,0,0,1,348,320.75Z" style="fill: rgb(146, 227, 169); transform-origin: 359.004px 348.278px;" id="ellmadp3fhaq" class="animable"></path><path d="M378.21,346.53a14.09,14.09,0,0,1-3.92-1.39s1.41-1.46,1.51-1.54c1.17-.93,4-2,5.36-1.11a2,2,0,0,1,.35,2.92A4.13,4.13,0,0,1,378.21,346.53Z" style="fill: rgb(146, 227, 169); transform-origin: 378.139px 344.355px;" id="el52dpmacra1w" class="animable"></path><path d="M363,379.26S355,360.14,350.58,361s7.61,30.48,7.61,30.48-13.95-26.32-23.47-26.32,3.49,29.1,15.54,38.79c0,0-19-20.5-30.13-16.07s22.2,25.22,22.2,25.22S323,407,325.2,411.68s8.25,5.55,8.25,5.55l-21.88,1.1h76.12l-17.13-1.66s17.77-8.87,13-12.47-15.23,4.16-15.23,4.16,18.08-19.95,14.59-27.43-19,13.57-19,13.57,12.69-26.88,10.15-31.59S363,379.26,363,379.26Z" style="fill: rgb(146, 227, 169); transform-origin: 349.63px 389.651px;" id="elll3ycnyle9a" class="animable"></path><path d="M365.49,380.27c-7,20.62-7,35.21-7,35.21s8.25.32,16.81-6" style="fill: none; stroke: rgb(38, 50, 56); stroke-linecap: round; stroke-linejoin: round; transform-origin: 366.895px 397.876px;" id="ell8n9xspwqnq" class="animable"></path><path d="M362,391.37a124.26,124.26,0,0,0-5.71-18.08" style="fill: none; stroke: rgb(38, 50, 56); stroke-linecap: round; stroke-linejoin: round; transform-origin: 359.145px 382.33px;" id="elcbgzpdxo8cl" class="animable"></path><path d="M341.38,379.32l17.76,26.33s12.06-10.15,16.18-15.86" style="fill: none; stroke: rgb(38, 50, 56); stroke-linecap: round; stroke-linejoin: round; transform-origin: 358.35px 392.485px;" id="elfdi9m2sqrgn" class="animable"></path><path d="M358.83,412s-18.72-8.88-26.33-14" style="fill: none; stroke: rgb(38, 50, 56); stroke-linecap: round; stroke-linejoin: round; transform-origin: 345.665px 405px;" id="elmmjrrq3x8sm" class="animable"></path><path d="M63.85,328.65s.17-.9.19-1c.21-.65,1-1.77,1.76-1.77a.9.9,0,0,1,.87,1,1.93,1.93,0,0,1-1,1.26A6.32,6.32,0,0,1,63.85,328.65Z" style="fill: rgb(146, 227, 169); transform-origin: 65.2628px 327.265px;" id="eltarm08220x" class="animable"></path><path d="M62.38,322.55c.72.26,1.07,1.59,1,2.27,0,.05-.14,1-.15,1h0c0,.21.11.43.17.68.11.45.23,1,.32,1.54a16.83,16.83,0,0,1,.2,1.86,11.39,11.39,0,0,1-.07,2.09v0c.09-.2.37-.76.4-.8.37-.56,1.43-1.44,2.16-1.24a.9.9,0,0,1,.57,1.21,1.89,1.89,0,0,1-1.27,1,6,6,0,0,1-1.88-.05,15.94,15.94,0,0,1-.45,2.09c-.11.39-.24.79-.37,1.19l.18-.35c.37-.57,1.43-1.45,2.16-1.24A.9.9,0,0,1,66,335a1.89,1.89,0,0,1-1.27,1,6,6,0,0,1-1.82,0c-.06.15-.11.31-.16.46-.25.73-.5,1.45-.73,2.17-.08.25-.15.51-.22.76l.15-.3c.38-.57,1.43-1.45,2.17-1.25a.9.9,0,0,1,.56,1.22,1.88,1.88,0,0,1-1.26.95,5.5,5.5,0,0,1-1.78,0c-.06.26-.13.52-.18.78s-.07.34-.09.52,0,.35-.08.52c0,.33-.07.68-.09,1s0,.44,0,.66c.07-.25.24-.74.25-.78a3.61,3.61,0,0,1,1.17-1.33,1,1,0,0,1,.1-.17.9.9,0,0,1,1.32-.21c.58.5.44,1.86.17,2.49l-.37.66.31-.39.67-.78.35-.39c.12-.13.26-.25.39-.38.3-.3.63-.58,1-.86a5.86,5.86,0,0,1-1.25-1.31A1.91,1.91,0,0,1,65,338.3a.91.91,0,0,1,1.28-.41c.65.41.71,1.78.55,2.44,0,0-.19.5-.29.75l.61-.49c.6-.47,1.23-.92,1.85-1.37l.57-.42a6.12,6.12,0,0,1-1.3-1.36,1.87,1.87,0,0,1-.16-1.58.91.91,0,0,1,1.28-.4c.65.4.71,1.77.54,2.43,0,.05-.26.71-.33.88.42-.31.83-.62,1.22-.94a17,17,0,0,0,1.51-1.41A6.32,6.32,0,0,1,71,335.06a1.91,1.91,0,0,1-.16-1.58.91.91,0,0,1,1.28-.4c.65.4.71,1.77.55,2.43,0,.05-.2.55-.3.79l0,0a11.65,11.65,0,0,0,1.23-1.66c.21-.32.38-.64.55-1a6.37,6.37,0,0,1-1.42-1.19,1.92,1.92,0,0,1-.32-1.55.91.91,0,0,1,1.23-.55c.68.34.9,1.69.8,2.37,0,0-.09.4-.17.67l.22-.43c.25-.52.45-1,.62-1.45.09-.25.18-.47.25-.68a6.22,6.22,0,0,1-.7-1.7,1.91,1.91,0,0,1,.42-1.53.91.91,0,0,1,1.34.09c.46.61,0,1.91-.37,2.46,0,0-.65.74-.66.73v0c-.06.21-.14.43-.22.67-.17.44-.35.94-.59,1.46a15.54,15.54,0,0,1-.86,1.66,11.13,11.13,0,0,1-1.21,1.71l0,0c.19-.12.73-.43.78-.45.62-.27,2-.42,2.49.16a.89.89,0,0,1-.2,1.32,1.9,1.9,0,0,1-1.58.1,6.52,6.52,0,0,1-1.55-1.07A16.42,16.42,0,0,1,71,338l-1,.79.34-.19c.63-.26,2-.42,2.49.16a.89.89,0,0,1-.2,1.32,1.86,1.86,0,0,1-1.58.1,5.77,5.77,0,0,1-1.5-1l-.38.3c-.61.47-1.22.93-1.81,1.41-.21.16-.4.34-.6.51l.29-.17c.63-.27,2-.42,2.49.16a.89.89,0,0,1-.2,1.32,1.89,1.89,0,0,1-1.58.1,5.75,5.75,0,0,1-1.46-1c-.2.18-.4.36-.58.55s-.25.24-.37.38l-.35.39-.63.78-.4.53.64-.52c.58-.36,1.91-.71,2.49-.22a.9.9,0,0,1,0,1.34,1.93,1.93,0,0,1-1.55.34,6.19,6.19,0,0,1-1.68-.83l-.62.84c-.67.93-1.2,1.73-1.56,2.3l0,.06-.47-.23.08-.11c.37-.56.92-1.36,1.62-2.29.22-.29.46-.6.71-.91a10.51,10.51,0,0,1-.72-.9,6.61,6.61,0,0,1-1.79.22c0,.36-.05.71-.06,1,0,1.15,0,2.11,0,2.78v.08l-.51-.25c0-.67,0-1.57.09-2.63,0-.37,0-.76.09-1.16a6,6,0,0,1-1.74-.68,1.89,1.89,0,0,1-.8-1.37.9.9,0,0,1,1-.9c.76.09,1.39,1.31,1.51,2,0,0,0,.48.06.75,0-.16,0-.32,0-.49,0-.33.07-.66.12-1,0-.17.05-.34.08-.52s.08-.35.11-.53c.09-.41.21-.83.33-1.25a6,6,0,0,1-1.77-.4,1.89,1.89,0,0,1-1-1.23.91.91,0,0,1,.85-1.05c.76,0,1.57,1.09,1.79,1.74,0,0,.13.51.18.78.08-.25.15-.5.24-.75.24-.72.51-1.44.78-2.16l.24-.67a6.14,6.14,0,0,1-1.83-.41,1.89,1.89,0,0,1-1-1.23.9.9,0,0,1,.84-1c.77,0,1.58,1.09,1.8,1.73,0,.05.17.74.21.91.17-.48.34-1,.49-1.46a14.87,14.87,0,0,0,.48-2,6.31,6.31,0,0,1-1.84-.41,1.89,1.89,0,0,1-1-1.23.91.91,0,0,1,.85-1.05c.76,0,1.57,1.09,1.79,1.74,0,0,.14.56.19.81h0a12.28,12.28,0,0,0,.12-2.07c0-.38,0-.74-.07-1.09a6.26,6.26,0,0,1-1.84-.21,1.9,1.9,0,0,1-1.13-1.12.91.91,0,0,1,.73-1.13c.75-.1,1.68.91,2,1.53,0,0,.15.39.23.65,0-.16,0-.32,0-.47-.08-.58-.19-1.09-.28-1.55l-.17-.71a6.51,6.51,0,0,1-1.53-1,1.89,1.89,0,0,1-.48-1.51A.9.9,0,0,1,62.38,322.55Z" style="fill: rgb(146, 227, 169); transform-origin: 67.4014px 335.137px;" id="elelmp5ayjqju" class="animable"></path><path d="M76.15,334.29a6.38,6.38,0,0,1-1.78-.63s.64-.66.68-.7c.53-.42,1.81-.93,2.45-.51a.9.9,0,0,1,.15,1.33A1.83,1.83,0,0,1,76.15,334.29Z" style="fill: rgb(146, 227, 169); transform-origin: 76.1235px 333.298px;" id="eleubmt46olxu" class="animable"></path><path d="M69.2,349.2s-3.61-8.71-5.63-8.33S67,354.76,67,354.76s-6.35-12-10.69-12,1.59,13.25,7.08,17.67c0,0-8.67-9.34-13.72-7.32S59.81,364.6,59.81,364.6,51,361.83,52,364s3.75,2.53,3.75,2.53l-10,.5H80.47l-7.8-.76s8.09-4,5.92-5.68-6.93,1.9-6.93,1.9,8.23-9.09,6.64-12.5-8.67,6.19-8.67,6.19,5.78-12.25,4.63-14.39S69.2,349.2,69.2,349.2Z" style="fill: rgb(146, 227, 169); transform-origin: 63.11px 353.944px;" id="elpm71cd385w9" class="animable"></path><path d="M70.36,349.66a55.28,55.28,0,0,0-3.18,16A13.26,13.26,0,0,0,74.84,363" style="fill: none; stroke: rgb(38, 50, 56); stroke-linecap: round; stroke-linejoin: round; transform-origin: 71.01px 357.66px;" id="el9sqtjcxsi3" class="animable"></path><path d="M68.77,354.72a56,56,0,0,0-2.6-8.24" style="fill: none; stroke: rgb(38, 50, 56); stroke-linecap: round; stroke-linejoin: round; transform-origin: 67.47px 350.6px;" id="el3gefto9m0bx" class="animable"></path><path d="M59.38,349.23l8.09,12S73,356.6,74.84,354" style="fill: none; stroke: rgb(38, 50, 56); stroke-linecap: round; stroke-linejoin: round; transform-origin: 67.11px 355.23px;" id="el1vdnjwre1zm" class="animable"></path><path d="M67.32,364.11s-8.52-4.05-12-6.36" style="fill: none; stroke: rgb(38, 50, 56); stroke-linecap: round; stroke-linejoin: round; transform-origin: 61.32px 360.93px;" id="elbyay1dxa70q" class="animable"></path></g><g id="freepik--Car--inject-31" class="animable" style="transform-origin: 141.23px 327.674px;"><line x1="95.18" y1="344.12" x2="187.59" y2="344.12" style="fill: none; stroke: rgb(38, 50, 56); stroke-linecap: round; stroke-linejoin: round; transform-origin: 141.385px 344.12px;" id="el403nhp935xd" class="animable"></line><polygon points="133.47 322.26 135.37 322.26 135.1 338.69 132.62 338.69 133.47 322.26" style="fill: rgb(50, 50, 50); transform-origin: 133.995px 330.475px;" id="el2xtxkhi2q7f" class="animable"></polygon><polygon points="101.18 335.89 117.39 335.89 119.19 338.15 163.18 338.15 184.6 338.15 184.6 329.14 102.53 329.14 101.18 335.89" style="fill: rgb(38, 50, 56); transform-origin: 142.89px 333.645px;" id="elfhfxpk1lotr" class="animable"></polygon><path d="M94,321.62l.07,12.47a1.63,1.63,0,0,0,1.15,1.29,27.78,27.78,0,0,0,3.67.13l3-5.53a3.64,3.64,0,0,1,3.41-2.45c2.7-.06,14.79.58,14.79.58a3.33,3.33,0,0,1,2.06,2.38c.51,1.93.32,7.59.32,7.59l11.13.32.38-16Z" style="fill: rgb(255, 255, 255); stroke: rgb(38, 50, 56); stroke-linecap: round; stroke-linejoin: round; transform-origin: 113.99px 330.01px;" id="elw7jxh6pzh3m" class="animable"></path><path d="M180.61,337.63a6.76,6.76,0,1,0-6.75,6.75A6.75,6.75,0,0,0,180.61,337.63Z" style="fill: rgb(38, 50, 56); transform-origin: 173.85px 337.62px;" id="eljpoys948n4j" class="animable"></path><path d="M179.26,337.63a5.41,5.41,0,1,0-5.4,5.4A5.4,5.4,0,0,0,179.26,337.63Z" style="fill: rgb(255, 255, 255); stroke: rgb(38, 50, 56); stroke-linecap: round; stroke-linejoin: round; transform-origin: 173.85px 337.62px;" id="elkdsu7o4juar" class="animable"></path><path d="M177.33,337.63a3.48,3.48,0,1,0-3.47,3.47A3.47,3.47,0,0,0,177.33,337.63Z" style="fill: rgb(255, 255, 255); stroke: rgb(38, 50, 56); stroke-linecap: round; stroke-linejoin: round; transform-origin: 173.85px 337.62px;" id="elattzhs0ektn" class="animable"></path><path d="M175.66,337.63a1.8,1.8,0,1,0-1.8,1.8A1.81,1.81,0,0,0,175.66,337.63Z" style="fill: rgb(255, 255, 255); stroke: rgb(38, 50, 56); stroke-linecap: round; stroke-linejoin: round; transform-origin: 173.86px 337.63px;" id="elevy2cjtjojh" class="animable"></path><path d="M119,337.63a6.76,6.76,0,1,0-6.76,6.75A6.76,6.76,0,0,0,119,337.63Z" style="fill: rgb(38, 50, 56); transform-origin: 112.24px 337.62px;" id="el7tvbtzgxktl" class="animable"></path><path d="M117.65,337.63a5.41,5.41,0,1,0-5.41,5.4A5.41,5.41,0,0,0,117.65,337.63Z" style="fill: rgb(255, 255, 255); stroke: rgb(38, 50, 56); stroke-linecap: round; stroke-linejoin: round; transform-origin: 112.24px 337.62px;" id="elt7eqzm9bcpn" class="animable"></path><path d="M115.72,337.63a3.48,3.48,0,1,0-3.48,3.47A3.47,3.47,0,0,0,115.72,337.63Z" style="fill: rgb(255, 255, 255); stroke: rgb(38, 50, 56); stroke-linecap: round; stroke-linejoin: round; transform-origin: 112.24px 337.62px;" id="elmj9h45k832" class="animable"></path><path d="M114,337.63a1.8,1.8,0,1,0-1.8,1.8A1.8,1.8,0,0,0,114,337.63Z" style="fill: rgb(255, 255, 255); stroke: rgb(38, 50, 56); stroke-linecap: round; stroke-linejoin: round; transform-origin: 112.2px 337.63px;" id="elb7i28gm0bao" class="animable"></path><path d="M138.66,311.1s-2.81.14-2.76.51a4.76,4.76,0,0,0,.41,1.1L134.52,322a22.17,22.17,0,0,0-.33,2.76c0,.92-.27,13.44-.27,13.44a1.17,1.17,0,0,0,1.06.74c.87.09,28,.5,28,.5a3.84,3.84,0,0,0,1.43-1.15c.78-.92,4.51-5.66,8.88-7a9,9,0,0,1,8.56,1.42c1.06,1,1.2,4.47,1.34,5.16s1.38.73,1.65.73,1.93-.18,2.3-.69a6.3,6.3,0,0,0,.56-2.34,1.86,1.86,0,0,0-.23-.69l1.24-5.25s.27-1-.05-1.24-1.15-.32-1.29-.83.56-1.47,0-2.21-2.39-1.47-3.77-1.79-9.44-.92-9.44-.92l-12.74-.69L158.22,317l-2.77-4.33a.59.59,0,0,0-.18-.87c-.55-.37-2.12-.51-5.2-.74S138.66,311.1,138.66,311.1Z" style="fill: rgb(255, 255, 255); stroke: rgb(38, 50, 56); stroke-linecap: round; stroke-linejoin: round; transform-origin: 161.368px 325.204px;" id="eln1619zm5k7o" class="animable"></path><path d="M136.36,338.47l.32-13.77s-.32-.64.45-1.67a10.48,10.48,0,0,1,1.55-1.67l1.15-7.33a2,2,0,0,1,1.87-1.8c1.8-.2,11.83.19,11.83.19l4.06,9.58a10.25,10.25,0,0,1,.51,3.48c-.06,1.93-.64,13.5-.64,13.5Z" style="fill: rgb(255, 255, 255); stroke: rgb(38, 50, 56); stroke-linecap: round; stroke-linejoin: round; transform-origin: 147.232px 325.576px;" id="eltpejmlfznta" class="animable"></path><path d="M155.27,311.84c-.55-.37-2.12-.51-5.2-.74s-11.41,0-11.41,0-2.81.14-2.76.51a2,2,0,0,0,.15.51h19.48A.75.75,0,0,0,155.27,311.84Z" style="fill: rgb(255, 255, 255); stroke: rgb(38, 50, 56); stroke-linecap: round; stroke-linejoin: round; transform-origin: 145.715px 311.559px;" id="ely5m4gpj8ai" class="animable"></path><path d="M151.63,313.31l-8.74-.09a1.64,1.64,0,0,0-1.61,1.33c-.41,1.43-1,6.35-1,6.35s0,.69,1,.74,13.76.28,13.76.28A.89.89,0,0,0,156,321c0-.87-3-7.18-3-7.18S152.79,313,151.63,313.31Z" style="fill: rgb(255, 255, 255); stroke: rgb(38, 50, 56); stroke-linecap: round; stroke-linejoin: round; transform-origin: 148.14px 317.571px;" id="el4l3pqj5uugf" class="animable"></path><path d="M155,321.9l-4.31-.07,1.28-8.58.25,0a1.06,1.06,0,0,1,1,.72c.35.69,3,6,3,6.84A1.1,1.1,0,0,1,155,321.9Zm-3.72-.54,3.72.06c.11,0,.66,0,.66-.58s-1.82-4.38-3-6.66l0-.05a.51.51,0,0,0-.28-.3Z" style="fill: rgb(38, 50, 56); transform-origin: 153.455px 317.578px;" id="el4mu49c2foh4" class="animable"></path><path d="M151.9,313.27l-1.29,8.56.62,0,1.28-8.51A1.13,1.13,0,0,0,151.9,313.27Z" style="fill: rgb(255, 255, 255); stroke: rgb(38, 50, 56); stroke-linecap: round; stroke-linejoin: round; transform-origin: 151.56px 317.54px;" id="elm8wb7v1pg3" class="animable"></path><path d="M158.22,317l-2.77-4.33s-.87,0-.5,1.11,3,7.22,3,7.22a2.64,2.64,0,0,0,1.43.74,19.83,19.83,0,0,0,2.35.23v-.08h-.31Z" style="fill: rgb(255, 255, 255); stroke: rgb(38, 50, 56); stroke-linecap: round; stroke-linejoin: round; transform-origin: 158.294px 317.32px;" id="el15xefgv82qg" class="animable"></path><polygon points="94.05 323.17 133.94 324.09 133.98 322.39 94.04 321.62 94.05 323.17" style="fill: rgb(38, 50, 56); transform-origin: 114.01px 322.855px;" id="elud0s5h6i8u" class="animable"></polygon><path d="M134.13,322.71h0l-40.92-1a.4.4,0,0,1-.38-.4.41.41,0,0,1,.39-.38l40.93,1a.39.39,0,0,1,.38.39A.4.4,0,0,1,134.13,322.71Z" style="fill: rgb(255, 255, 255); transform-origin: 113.68px 321.82px;" id="eluzasv9y9avm" class="animable"></path><path d="M134.13,322.71h0l-40.92-1a.4.4,0,0,1-.38-.4.41.41,0,0,1,.39-.38l40.93,1a.39.39,0,0,1,.38.39A.4.4,0,0,1,134.13,322.71Z" style="fill: none; stroke: rgb(38, 50, 56); stroke-linecap: round; stroke-linejoin: round; transform-origin: 113.68px 321.82px;" id="eljvwxs0xoxie" class="animable"></path><path d="M96.29,337.89l4.83,1,2.25-7.07s.32-1.35,3.28-1.67,8.55-.33,10.74.32,2.44,2.44,2.76,4.37.13,4.76.65,5.08,3.6.07,4.18-.06,1.22-8,1-10-2.45-4.18-5.6-4.31-12.54-.39-16.72.19-5.66,2.38-6.3,5A64.43,64.43,0,0,0,96.29,337.89Z" style="fill: rgb(255, 255, 255); stroke: rgb(38, 50, 56); stroke-linecap: round; stroke-linejoin: round; transform-origin: 111.157px 332.727px;" id="elt28bmp4jlt" class="animable"></path><path d="M187.11,337.88a6.3,6.3,0,0,0,.56-2.34,1.86,1.86,0,0,0-.23-.69l1.24-5.25s.27-1-.05-1.24a4,4,0,0,0-.71-.31c-4.45-.3-14.85-.86-19.14,1.16-4.66,2.18-9.51,8.53-10.68,10.12l4.85.07a3.84,3.84,0,0,0,1.43-1.15c.78-.92,4.51-5.66,8.88-7a9,9,0,0,1,8.56,1.42c1.06,1,1.2,4.47,1.34,5.16s1.38.73,1.65.73S186.74,338.39,187.11,337.88Z" style="fill: rgb(255, 255, 255); stroke: rgb(38, 50, 56); stroke-linecap: round; stroke-linejoin: round; transform-origin: 173.443px 333.572px;" id="elof4omvvbqj9" class="animable"></path><path d="M187.44,334.85h1.62l.07.07a1.7,1.7,0,0,1,.44,1.65l-.39,1.39a1.24,1.24,0,0,1-1.41.89l-1.37-.23A3.14,3.14,0,0,1,187.44,334.85Z" style="fill: rgb(255, 255, 255); stroke: rgb(38, 50, 56); stroke-linecap: round; stroke-linejoin: round; transform-origin: 187.889px 336.859px;" id="elc3gpz00wdn7" class="animable"></path><path d="M139.91,322.8s.12.51-.18.64a1.2,1.2,0,0,1-1.15-.34c-.26-.3-.05-.69.64-.69S139.91,322.8,139.91,322.8Z" style="fill: rgb(38, 50, 56); transform-origin: 139.203px 322.942px;" id="elfunhnbcqakq" class="animable"></path><path d="M138.45,322.67a11.24,11.24,0,0,1,4.63.08,1.41,1.41,0,0,1-.6.17C142.18,322.92,137.81,322.92,138.45,322.67Z" style="fill: rgb(38, 50, 56); transform-origin: 140.733px 322.694px;" id="elx4qd0e3w9u" class="animable"></path></g><defs>     <filter id="active" height="200%">         <feMorphology in="SourceAlpha" result="DILATED" operator="dilate" radius="2"></feMorphology>                <feFlood flood-color="#32DFEC" flood-opacity="1" result="PINK"></feFlood>        <feComposite in="PINK" in2="DILATED" operator="in" result="OUTLINE"></feComposite>        <feMerge>            <feMergeNode in="OUTLINE"></feMergeNode>            <feMergeNode in="SourceGraphic"></feMergeNode>        </feMerge>    </filter>    <filter id="hover" height="200%">        <feMorphology in="SourceAlpha" result="DILATED" operator="dilate" radius="2"></feMorphology>                <feFlood flood-color="#ff0000" flood-opacity="0.5" result="PINK"></feFlood>        <feComposite in="PINK" in2="DILATED" operator="in" result="OUTLINE"></feComposite>        <feMerge>            <feMergeNode in="OUTLINE"></feMergeNode>            <feMergeNode in="SourceGraphic"></feMergeNode>        </feMerge>            <feColorMatrix type="matrix" values="0   0   0   0   0                0   1   0   0   0                0   0   0   0   0                0   0   0   1   0 "></feColorMatrix>    </filter></defs><defs><clipPath id="freepik--clip-path--inject-31"><polygon points="404.07 274.23 397.21 269.86 371.92 207.39 328.05 186.56 232.05 186.56 275.92 207.39 301.21 269.86 308.07 274.23 394.76 274.23 401.39 278.44 404.07 274.23" style="fill:#263238;stroke:#263238;stroke-linecap:round;stroke-linejoin:round"></polygon></clipPath></defs></svg>